<svg xmlns="http://www.w3.org/2000/svg" viewBox="0 0 1460 1090"><g id="Trazados"><rect width="1460" height="1090" style="fill:#181818"/><path d="M25.65,343S.5159,153.6216,88.4852,24.5c0,0,200.0256,121.5895,299.5148,252.8632,0,0-205.2619-174.3142-294.2785-227.0389C93.7215,50.3243,27.7445,161.1537,25.65,343Z" transform="translate(-0.5)" style="fill:#fff;stroke:#fff;stroke-miterlimit:10"/><path d="M1066,265.297S1193.74,121.7188,1381.2289,26c0,0,81.8977,114.9666,55.1135,296,0,0-6.1809-181.0334-63.87-267.3884C1372.4725,54.6116,1250.9137,121.1986,1066,265.297Z" transform="translate(-0.5)" style="fill:#fff;stroke:#fff;stroke-miterlimit:10"/><path d="M422.5,432.5H942.5906s266.9094-2,268.9094,210c0,0-2,235-200,234,0,0-233.3066-10.622-283.1533-235.311L725.5,581.5c-1.6374-.0211-32.9049-50.0374-69,3v51S617.752,849.5064,371.126,876.5032c0,0-186.626,8.9968-197.626-239.0032C173.5,637.5,166.5,444.5,422.5,432.5Z" transform="translate(-0.5)" style="fill:#fff;stroke:#fff;stroke-miterlimit:10"/><path d="M213,636.9661s-2.9908-158.5428,225.5185-163.8715q4.8066-.1122,9.5876-.6483c26.99-3.0139,171.3057-12.5537,176.7365,127.223.37,9.5257.2406,19.2475-2.5036,28.3768C610.2365,668.3082,581.7007,770.5242,418.5,834.5c-15.209,5.962-63.62,5.5524-77.5885-.4754C297.5248,815.3015,219.3044,782.9582,213,636.9661Z" transform="translate(-0.5)" style="stroke:#fff;stroke-miterlimit:10"/><path d="M766,611S749.1811,452.18,944.5906,471.09C944.5906,471.09,1177,468,1172,642c0,0-2.252,189.5292-155.126,196.7646C1016.874,838.7646,795,827,766,611Z" transform="translate(-0.5)" style="stroke:#fff;stroke-miterlimit:10"/><rect x="326" y="615.5" width="138" height="16" style="fill:#0ed145;stroke:#0ed145;stroke-miterlimit:10"/><rect x="268" y="673.5" width="111" height="16" style="fill:#0ed145;stroke:#0ed145;stroke-miterlimit:10"/><rect x="318" y="699.5" width="91" height="16" style="fill:#0ed145;stroke:#0ed145;stroke-miterlimit:10"/><rect x="274" y="615.5" width="42" height="16" style="fill:#00a8f3;stroke:#00a8f3;stroke-miterlimit:10"/><rect x="420" y="699.5" width="44" height="16" style="fill:#00a8f3;stroke:#00a8f3;stroke-miterlimit:10"/><rect x="468" y="529.5" width="28" height="16" style="fill:#ff7f27;stroke:#ff7f27;stroke-miterlimit:10"/><rect x="418" y="641.5" width="46" height="16" style="fill:#ff7f27;stroke:#ff7f27;stroke-miterlimit:10"/><rect x="301" y="727.5" width="104" height="16" style="fill:#ff7f27;stroke:#ff7f27;stroke-miterlimit:10"/><rect x="466" y="582.5" width="28" height="16" style="fill:#b83dba;stroke:#b83dba;stroke-miterlimit:10"/><rect x="388" y="673.5" width="76" height="16" style="fill:#b83dba;stroke:#b83dba;stroke-miterlimit:10"/><rect x="468" y="756.5" width="28" height="16" style="fill:#b83dba;stroke:#b83dba;stroke-miterlimit:10"/><rect x="415" y="727.5" width="49" height="16" style="fill:#b83dba;stroke:#b83dba;stroke-miterlimit:10"/><rect x="262" y="699.5" width="47" height="16" style="fill:#b83dba;stroke:#b83dba;stroke-miterlimit:10"/><rect x="520" y="523.5" width="8" height="246" style="fill:#585858;stroke:#585858;stroke-miterlimit:10"/><rect x="550" y="534.5" width="8" height="14" style="fill:#585858;stroke:#585858;stroke-miterlimit:10"/><rect x="550" y="562.5" width="8" height="14" style="fill:#585858;stroke:#585858;stroke-miterlimit:10"/><rect x="550" y="590.5" width="8" height="14" style="fill:#585858;stroke:#585858;stroke-miterlimit:10"/><rect x="550" y="618.5" width="8" height="14" style="fill:#585858;stroke:#585858;stroke-miterlimit:10"/><rect x="550" y="646.5" width="8" height="14" style="fill:#585858;stroke:#585858;stroke-miterlimit:10"/><rect x="550" y="674.5" width="8" height="14" style="fill:#585858;stroke:#585858;stroke-miterlimit:10"/><rect x="550" y="702.5" width="8" height="14" style="fill:#585858;stroke:#585858;stroke-miterlimit:10"/><rect x="550" y="727.5" width="8" height="14" style="fill:#585858;stroke:#585858;stroke-miterlimit:10"/><rect x="892" y="616.5" width="138" height="16" style="fill:#0ed145;stroke:#0ed145;stroke-miterlimit:10"/><rect x="834" y="674.5" width="111" height="16" style="fill:#0ed145;stroke:#0ed145;stroke-miterlimit:10"/><rect x="884" y="700.5" width="91" height="16" style="fill:#0ed145;stroke:#0ed145;stroke-miterlimit:10"/><rect x="840" y="616.5" width="42" height="16" style="fill:#00a8f3;stroke:#00a8f3;stroke-miterlimit:10"/><rect x="986" y="700.5" width="44" height="16" style="fill:#00a8f3;stroke:#00a8f3;stroke-miterlimit:10"/><rect x="1034" y="530.5" width="28" height="16" style="fill:#ff7f27;stroke:#ff7f27;stroke-miterlimit:10"/><rect x="984" y="642.5" width="46" height="16" style="fill:#ff7f27;stroke:#ff7f27;stroke-miterlimit:10"/><rect x="867" y="728.5" width="104" height="16" style="fill:#ff7f27;stroke:#ff7f27;stroke-miterlimit:10"/><rect x="1034" y="584.5" width="28" height="16" style="fill:#b83dba;stroke:#b83dba;stroke-miterlimit:10"/><rect x="954" y="674.5" width="76" height="16" style="fill:#b83dba;stroke:#b83dba;stroke-miterlimit:10"/><rect x="1034" y="757.5" width="28" height="16" style="fill:#b83dba;stroke:#b83dba;stroke-miterlimit:10"/><rect x="981" y="728.5" width="49" height="16" style="fill:#b83dba;stroke:#b83dba;stroke-miterlimit:10"/><rect x="828" y="700.5" width="47" height="16" style="fill:#b83dba;stroke:#b83dba;stroke-miterlimit:10"/><rect x="1086" y="524.5" width="8" height="263" style="fill:#585858;stroke:#585858;stroke-miterlimit:10"/><rect x="1116" y="535.5" width="8" height="14" style="fill:#585858;stroke:#585858;stroke-miterlimit:10"/><rect x="1116" y="563.5" width="8" height="14" style="fill:#585858;stroke:#585858;stroke-miterlimit:10"/><rect x="1116" y="591.5" width="8" height="14" style="fill:#585858;stroke:#585858;stroke-miterlimit:10"/><rect x="1116" y="619.5" width="8" height="14" style="fill:#585858;stroke:#585858;stroke-miterlimit:10"/><rect x="1116" y="647.5" width="8" height="14" style="fill:#585858;stroke:#585858;stroke-miterlimit:10"/><rect x="1116" y="675.5" width="8" height="14" style="fill:#585858;stroke:#585858;stroke-miterlimit:10"/><rect x="1116" y="703.5" width="8" height="14" style="fill:#585858;stroke:#585858;stroke-miterlimit:10"/><rect x="1116" y="731.5" width="8" height="14" style="fill:#585858;stroke:#585858;stroke-miterlimit:10"/><rect x="1116" y="759.5" width="8" height="14" style="fill:#585858;stroke:#585858;stroke-miterlimit:10"/><path d="M791.5,469.5s-39.56,12.59-54.53,73.04c0,0-40.86-35.45-86.91,0,0,0-7.4-39.49-52.73-73.01Z" transform="translate(-0.5)" style="fill:#181818;stroke:#fff;stroke-miterlimit:10"/><path d="M616.5722,939.3336a13.5827,13.5827,0,0,1-.8443-22.7211c9.7859-6.91,28.4717-21.7284,67.7957-23.4924a50.4318,50.4318,0,0,1,6.7828.1506c16.1467,1.4536,86.0617,9.3182,89.1739,36.7293a11.7144,11.7144,0,0,1-2.5256,5.7617,14.0055,14.0055,0,0,1-10.4788,5.24c-5.9466.287-18.9584,2.0547-35.4869,11.0695a40.3455,40.3455,0,0,0-17.87,19.7513C708.9977,981.6268,702,997,693,995c0,0-11.7482,1.2715-21-23-5.4965-14.42-17.7971-23.3512-33-26C631.6648,944.722,623.6844,943.5428,616.5722,939.3336Z" transform="translate(-0.5)" style="fill:#fff;stroke:#000;stroke-miterlimit:10"/><path d="M885,963s245,22,275,95c0,0-56-61-273-81C887,977,874,969,885,963Z" transform="translate(-0.5)" style="fill:#fff;stroke:#fff;stroke-miterlimit:10"/><path d="M700.9731,923.5717a4.8683,4.8683,0,0,1,.4232-7.1634c2.048-1.6678,5.717-3.4083,12.1108-3.4083,6.3542,0,10.5493,1.719,13.118,3.3773a4.832,4.832,0,0,1,.8869,7.4158,16.1968,16.1968,0,0,1-8.4253,4.1757C711.7367,929.5337,704.3867,927.09,700.9731,923.5717Z" transform="translate(-0.5)" style="fill:#181818;stroke:#fff;stroke-miterlimit:10"/><path d="M502.5,970.5s-130,4-235,73c0,0,120-53,229-64C496.5,979.5,515.5,979.5,502.5,970.5Z" transform="translate(-0.5)" style="fill:#fff;stroke:#fff;stroke-miterlimit:10"/><path d="M513.5,935.5s-272-22-339,40c0,0,106.0965-50.7537,332.5483-31.3769C507.0483,944.1231,530.5,947.5,513.5,935.5Z" transform="translate(-0.5)" style="fill:#fff;stroke:#fff;stroke-miterlimit:10"/><path d="M504.6693,995.1773S415.5,993.5,360.5,1064.5c0,0,61-57,141-62C501.5,1002.5,520.8386,1002.8547,504.6693,995.1773Z" transform="translate(-0.5)" style="fill:#fff;stroke:#000;stroke-miterlimit:10"/><path d="M889.5,924.5s283,2,325,66c0,0-56-55-323-56C891.5,934.5,868.5,937.5,889.5,924.5Z" transform="translate(-0.5)" style="fill:#fff;stroke:#fff;stroke-miterlimit:10"/><path d="M869.7717,995.1773S967.5,995.5,1004.5,1070.5c0,0-57.9213-74-132.4606-63.5C872.0394,1007,854.0433,1002.8547,869.7717,995.1773Z" transform="translate(-0.5)" style="fill:#fff;stroke:#fff;stroke-miterlimit:10"/></g></svg>