<svg xmlns="http://www.w3.org/2000/svg" viewBox="0 0 1920 1536"><g id="Trazados"><rect width="1920" height="1536" style="fill:#181818"/><path d="M253.65,355S228.5159,165.6216,316.4852,36.5c0,0,200.0256,121.5895,299.5148,252.8632,0,0-205.2619-174.3142-294.2785-227.0389C321.7215,62.3243,255.7445,173.1537,253.65,355Z" transform="translate(0.5 0.5)" style="fill:#fff;stroke:#fff;stroke-miterlimit:10"/><path d="M1294,277.297S1421.74,133.7188,1609.2289,38c0,0,81.8977,114.9666,55.1135,296,0,0-6.1809-181.0334-63.87-267.3884C1600.4725,66.6116,1478.9137,133.1986,1294,277.297Z" transform="translate(0.5 0.5)" style="fill:#fff;stroke:#fff;stroke-miterlimit:10"/><path d="M650.5,444.5h520.0906s266.9094-2,268.9094,210c0,0-2,235-200,234,0,0-233.3066-10.622-283.1533-235.311L953.5,593.5c-1.6374-.0211-32.9049-50.0374-69,3v51S845.752,861.5064,599.126,888.5032c0,0-186.626,8.9968-197.626-239.0032C401.5,649.5,394.5,456.5,650.5,444.5Z" transform="translate(0.5 0.5)" style="fill:#fff;stroke:#fff;stroke-miterlimit:10"/><path d="M441,648.9661s-2.9908-158.5428,225.5185-163.8715q4.8066-.1122,9.5876-.6483c26.99-3.0139,171.3057-12.5537,176.7365,127.223.37,9.5257.2406,19.2475-2.5036,28.3768C838.2365,680.3082,809.7007,782.5242,646.5,846.5c-15.209,5.962-63.62,5.5524-77.5885-.4754C525.5248,827.3015,447.3044,794.9582,441,648.9661Z" transform="translate(0.5 0.5)" style="stroke:#fff;stroke-miterlimit:10"/><path d="M994,623s-16.8189-158.82,178.5906-139.91c0,0,232.4094-3.09,227.4094,170.91,0,0-2.252,189.5292-155.126,196.7646C1244.874,850.7646,1023,839,994,623Z" transform="translate(0.5 0.5)" style="stroke:#fff;stroke-miterlimit:10"/><rect x="555" y="628" width="138" height="16" style="fill:#0ed145;stroke:#0ed145;stroke-miterlimit:10"/><rect x="497" y="686" width="111" height="16" style="fill:#0ed145;stroke:#0ed145;stroke-miterlimit:10"/><rect x="547" y="712" width="91" height="16" style="fill:#0ed145;stroke:#0ed145;stroke-miterlimit:10"/><rect x="503" y="628" width="42" height="16" style="fill:#00a8f3;stroke:#00a8f3;stroke-miterlimit:10"/><rect x="649" y="712" width="44" height="16" style="fill:#00a8f3;stroke:#00a8f3;stroke-miterlimit:10"/><rect x="697" y="542" width="28" height="16" style="fill:#ff7f27;stroke:#ff7f27;stroke-miterlimit:10"/><rect x="647" y="654" width="46" height="16" style="fill:#ff7f27;stroke:#ff7f27;stroke-miterlimit:10"/><rect x="530" y="740" width="104" height="16" style="fill:#ff7f27;stroke:#ff7f27;stroke-miterlimit:10"/><rect x="697" y="596" width="28" height="16" style="fill:#b83dba;stroke:#b83dba;stroke-miterlimit:10"/><rect x="617" y="686" width="76" height="16" style="fill:#b83dba;stroke:#b83dba;stroke-miterlimit:10"/><rect x="697" y="769" width="28" height="16" style="fill:#b83dba;stroke:#b83dba;stroke-miterlimit:10"/><rect x="644" y="740" width="49" height="16" style="fill:#b83dba;stroke:#b83dba;stroke-miterlimit:10"/><rect x="491" y="712" width="47" height="16" style="fill:#b83dba;stroke:#b83dba;stroke-miterlimit:10"/><rect x="749" y="536" width="8" height="246" style="fill:#585858;stroke:#585858;stroke-miterlimit:10"/><rect x="779" y="547" width="8" height="14" style="fill:#585858;stroke:#585858;stroke-miterlimit:10"/><rect x="779" y="575" width="8" height="14" style="fill:#585858;stroke:#585858;stroke-miterlimit:10"/><rect x="779" y="603" width="8" height="14" style="fill:#585858;stroke:#585858;stroke-miterlimit:10"/><rect x="779" y="631" width="8" height="14" style="fill:#585858;stroke:#585858;stroke-miterlimit:10"/><rect x="779" y="659" width="8" height="14" style="fill:#585858;stroke:#585858;stroke-miterlimit:10"/><rect x="779" y="687" width="8" height="14" style="fill:#585858;stroke:#585858;stroke-miterlimit:10"/><rect x="779" y="715" width="8" height="14" style="fill:#585858;stroke:#585858;stroke-miterlimit:10"/><rect x="779" y="740" width="8" height="14" style="fill:#585858;stroke:#585858;stroke-miterlimit:10"/><rect x="1121" y="629" width="138" height="16" style="fill:#0ed145;stroke:#0ed145;stroke-miterlimit:10"/><rect x="1063" y="687" width="111" height="16" style="fill:#0ed145;stroke:#0ed145;stroke-miterlimit:10"/><rect x="1113" y="713" width="91" height="16" style="fill:#0ed145;stroke:#0ed145;stroke-miterlimit:10"/><rect x="1069" y="629" width="42" height="16" style="fill:#00a8f3;stroke:#00a8f3;stroke-miterlimit:10"/><rect x="1215" y="713" width="44" height="16" style="fill:#00a8f3;stroke:#00a8f3;stroke-miterlimit:10"/><rect x="1263" y="543" width="28" height="16" style="fill:#ff7f27;stroke:#ff7f27;stroke-miterlimit:10"/><rect x="1213" y="655" width="46" height="16" style="fill:#ff7f27;stroke:#ff7f27;stroke-miterlimit:10"/><rect x="1096" y="741" width="104" height="16" style="fill:#ff7f27;stroke:#ff7f27;stroke-miterlimit:10"/><rect x="1263" y="597" width="28" height="16" style="fill:#b83dba;stroke:#b83dba;stroke-miterlimit:10"/><rect x="1183" y="687" width="76" height="16" style="fill:#b83dba;stroke:#b83dba;stroke-miterlimit:10"/><rect x="1263" y="770" width="28" height="16" style="fill:#b83dba;stroke:#b83dba;stroke-miterlimit:10"/><rect x="1210" y="741" width="49" height="16" style="fill:#b83dba;stroke:#b83dba;stroke-miterlimit:10"/><rect x="1057" y="713" width="47" height="16" style="fill:#b83dba;stroke:#b83dba;stroke-miterlimit:10"/><rect x="1315" y="537" width="8" height="263" style="fill:#585858;stroke:#585858;stroke-miterlimit:10"/><rect x="1345" y="548" width="8" height="14" style="fill:#585858;stroke:#585858;stroke-miterlimit:10"/><rect x="1345" y="576" width="8" height="14" style="fill:#585858;stroke:#585858;stroke-miterlimit:10"/><rect x="1345" y="604" width="8" height="14" style="fill:#585858;stroke:#585858;stroke-miterlimit:10"/><rect x="1345" y="632" width="8" height="14" style="fill:#585858;stroke:#585858;stroke-miterlimit:10"/><rect x="1345" y="660" width="8" height="14" style="fill:#585858;stroke:#585858;stroke-miterlimit:10"/><rect x="1345" y="688" width="8" height="14" style="fill:#585858;stroke:#585858;stroke-miterlimit:10"/><rect x="1345" y="716" width="8" height="14" style="fill:#585858;stroke:#585858;stroke-miterlimit:10"/><rect x="1345" y="744" width="8" height="14" style="fill:#585858;stroke:#585858;stroke-miterlimit:10"/><rect x="1345" y="772" width="8" height="14" style="fill:#585858;stroke:#585858;stroke-miterlimit:10"/><path d="M1019.5,481.5s-39.56,12.59-54.53,73.04c0,0-40.86-35.45-86.91,0,0,0-7.4-39.49-52.73-73.01Z" transform="translate(0.5 0.5)" style="fill:#181818;stroke:#fff;stroke-miterlimit:10"/><path d="M844.5722,951.3336a13.5827,13.5827,0,0,1-.8443-22.7211c9.7859-6.91,28.4717-21.7284,67.7957-23.4924a50.4318,50.4318,0,0,1,6.7828.1506c16.1467,1.4536,86.0617,9.3182,89.1739,36.7293a11.7144,11.7144,0,0,1-2.5256,5.7617,14.0055,14.0055,0,0,1-10.4788,5.24c-5.9466.287-18.9584,2.0547-35.4869,11.0695a40.3455,40.3455,0,0,0-17.87,19.7513C936.9977,993.6268,930,1009,921,1007c0,0-11.7482,1.2715-21-23-5.4965-14.42-17.7971-23.3512-33-26C859.6648,956.722,851.6844,955.5428,844.5722,951.3336Z" transform="translate(0.5 0.5)" style="fill:#fff;stroke:#000;stroke-miterlimit:10"/><path d="M1113,975s245,22,275,95c0,0-56-61-273-81C1115,989,1102,981,1113,975Z" transform="translate(0.5 0.5)" style="fill:#fff;stroke:#fff;stroke-miterlimit:10"/><path d="M928.9731,935.5717a4.8683,4.8683,0,0,1,.4232-7.1634c2.048-1.6678,5.717-3.4083,12.1108-3.4083,6.3542,0,10.5493,1.719,13.118,3.3773a4.832,4.832,0,0,1,.8869,7.4158,16.1968,16.1968,0,0,1-8.4253,4.1757C939.7367,941.5337,932.3867,939.09,928.9731,935.5717Z" transform="translate(0.5 0.5)" style="fill:#181818;stroke:#fff;stroke-miterlimit:10"/><path d="M730.5,982.5s-130,4-235,73c0,0,120-53,229-64C724.5,991.5,743.5,991.5,730.5,982.5Z" transform="translate(0.5 0.5)" style="fill:#fff;stroke:#fff;stroke-miterlimit:10"/><path d="M741.5,947.5s-272-22-339,40c0,0,106.0965-50.7537,332.5483-31.3769C735.0483,956.1231,758.5,959.5,741.5,947.5Z" transform="translate(0.5 0.5)" style="fill:#fff;stroke:#fff;stroke-miterlimit:10"/><path d="M732.6693,1007.1773S643.5,1005.5,588.5,1076.5c0,0,61-57,141-62C729.5,1014.5,748.8386,1014.8547,732.6693,1007.1773Z" transform="translate(0.5 0.5)" style="fill:#fff;stroke:#fff;stroke-miterlimit:10"/><path d="M1117.5,936.5s283,2,325,66c0,0-56-55-323-56C1119.5,946.5,1096.5,949.5,1117.5,936.5Z" transform="translate(0.5 0.5)" style="fill:#fff;stroke:#fff;stroke-miterlimit:10"/><path d="M1097.7717,1007.1773S1195.5,1007.5,1232.5,1082.5c0,0-57.9213-74-132.4606-63.5C1100.0394,1019,1082.0433,1014.8547,1097.7717,1007.1773Z" transform="translate(0.5 0.5)" style="fill:#fff;stroke:#fff;stroke-miterlimit:10"/></g><g id="Texto"><text transform="translate(0.561 1355.8359) scale(1.0599 1)" style="font-size:188.68814086914062px;fill:#fff;font-family:Tillana-Medium, Tillana;font-weight:500;letter-spacing:-0.02800048914946481em">&lt; JYMMY MURILLO /&gt;</text><text transform="translate(485.6289 1464.7988)" style="font-size:84px;fill:#fff;font-family:Verdana;letter-spacing:-0.05000232514880952em">FULL S<tspan x="265.0264" y="0" style="letter-spacing:-0.10859026227678571em">T</tspan><tspan x="307.6665" y="0">ACK DEVE</tspan><tspan x="706.248" y="0" style="letter-spacing:-0.05976795014880952em">L</tspan><tspan x="747.9854" y="0" style="letter-spacing:-0.04999651227678571em">OPER</tspan></text></g></svg>